<svg xmlns="http://www.w3.org/2000/svg" xmlns:svg="http://www.w3.org/2000/svg" id="svg47" width="1496.921" height="1728.547" version="1.1" viewBox="0 0 1496.921 1728.547"><defs id="defs47"><linearGradient id="gradient_1_" x1="305.671" x2="305.671" y1="404.726" y2="134.417" gradientTransform="matrix(2.4466131,0,0,2.4466131,-0.20306889,-298.78772)" gradientUnits="userSpaceOnUse"><stop offset="0" style="stop-color:#fff;stop-opacity:0" id="stop1"/><stop offset="1" style="stop-color:#fff" id="stop2"/></linearGradient></defs><path id="fill" style="fill:#fffffd;fill-opacity:1;stroke-width:2.44661" d="M 748.41276,-0.08589453 C 498.90735,143.95165 249.40385,287.99259 -0.10271952,432.02803 c 0,288.16197 0,576.32387 0,864.48587 C 249.41963,1440.5608 498.94016,1584.611 748.46054,1728.6613 997.98092,1584.6126 1247.5014,1440.564 1497.0238,1296.5187 c 0,-288.1635 0,-576.32711 0,-864.49067 C 1247.5014,287.98276 997.98092,143.93415 748.46054,-0.11456639 Z"/><path id="gradient" fill="url(#gradient_1_)" d="M 747.45993,30.078668 144.68543,379.04155 c 90.4733,182.35831 326.1139,312.37623 602.5518,312.37623 277.28937,0 513.53187,-130.82041 603.38617,-314.06194 z" opacity=".2" style="display:inline;fill:url(#gradient_1_);stroke-width:2.44661"/><path id="outline" fill="#ec6b00" d="M 1437.2311,397.65538 871.30263,70.893069 748.46063,6.3887e-6 625.61863,70.893069 59.690031,397.65538 3.11127e-5,432.08412 V 1296.4554 L 59.687631,1330.8817 632.54253,1661.725 l 115.9181,66.8219 115.9156,-66.8219 572.85487,-330.836 59.69,-34.4238 V 432.08412 Z m 0,866.41172 L 748.46063,1661.725 59.690031,1264.0671 V 468.55089 L 748.46063,70.893069 v 0 L 1437.2311,468.55089 Z" style="stroke-width:2.44661;fill:#64b8b4;fill-opacity:1"/><g id="g7" transform="matrix(1.4466963,0,0,1.4466963,-433.04725,-374.3919)"><g id="g5"><path id="path3" fill="#64b8b4" d="m 1067.3082,896.1289 c 0.2481,0.30206 0.7215,0.27184 0.94,-0.06 22.22,-33.7 36.5,-70.59 42.84,-110.67 11.88,-75.05 -5.75,-151.4 -51.25,-212.69 -30.4933,-41.06667 -69.11332,-72.24 -115.85997,-93.52 -53.09,-24.15 -112.97,-32.48 -170.94,-22.31 -25,4.39 -49.71,12.05 -71,21.09 -3.28,1.39333 -5.77,0.77333 -7.47,-1.86 -3.16,-4.88667 -6.37,-9.85333 -9.63,-14.9 -2.22,-3.43 0.09,-6.22 3.22,-7.68 40.07,-18.58 83.43,-28.35 127.42,-29.27 70.77,-1.49 139.22,20.84 197.07997,61.96 48.05,34.15 85.67,83.36 107.9,137.34 14.9533,36.28667 22.5533,74.47333 22.8,114.56 0.39,62.37 -17.55,122.6 -52.05,174.96 -0.1946,0.29538 -0.03,0.69592 0.32,0.78 5.6,1.28 12.42,2.73333 20.46,4.36 3.75,0.76 5.44,5.05 3.61,8.04 -0.5333,0.86667 -2.06,1.81333 -4.58,2.84 -34.2733,13.90667 -54.3333,22.06 -60.18,24.46 -4.92,2.02 -9.3,1.84 -8.97,-4.74 1.4111,-26.34034 2.7108,-57.07433 3.43,-65.46 0.4,-4.56 5.13,-8.05 8.58,-3.65 4.1933,5.34 8.6367,10.81333 13.33,16.42 z"/><path id="path5" fill="#043f48" d="m 574.52823,599.8389 -11.75,-16.44 c -0.83993,-1.1745 -2.61404,-1.08393 -3.33,0.17 -2.8,4.94 -4.91333,8.64333 -6.34,11.11 -8.3,14.36 -15.28333,29.84333 -20.95,46.45 -6.01333,17.62667 -10.26667,34.81333 -12.76,51.56 -4.17978,28.07317 -5.2634,57.68977 -0.94,86.85 6.13333,41.43333 20.34667,79.24667 42.64,113.44 17.42667,26.72 38.84333,49.97667 64.25,69.77 39.93,31.12 87.7,51.55 138.13,59.34 59.85333,9.24 116.68333,0.3167 170.49,-26.77 2.45404,-1.23289 4.54112,0.46892 4.91,1 3.85333,5.4533 7.09,10.4533 9.71,15 2.61,4.52 0.07,6.43 -3.94,8.52 -8.83333,4.6133 -17.23,8.4533 -25.19,11.52 -34.43589,12.2406 -72.45302,21.0211 -109.37,20.85 -44.37123,0.1644 -87.73249,-8.9977 -128.8,-25.88 -20.72,-9.0733 -40.38333,-20.16 -58.99,-33.26 -33.82769,-21.16524 -77.78699,-69.72607 -101.21,-117.8 -8.19759,-14.43886 -41.25348,-86.00936 -28.31,-181.14 4.78984,-35.04764 15.02109,-65.57313 30.24,-99.02 1.98667,-4.38667 6.73667,-13.15667 14.25,-26.31 1.4,-2.45 1.14,-4.36 -1.74,-4.87 -5.39333,-0.96667 -11.60667,-2.27667 -18.64,-3.93 -1.73,-0.41 -3.81,-1.38 -4.41,-3.26 -0.72667,-2.23333 -0.0133,-3.81667 2.14,-4.75 21.50917,-8.87296 42.97385,-17.86906 64.55,-26.58 2.92608,-0.93931 4.9288,0.97215 5.08,3.84 -0.35275,14.83026 -0.71368,29.66833 -1.36,44.49 -0.45333,8.3 -0.67667,15.85 -0.67,22.65 0.01,3.73 -0.77,5.56 -4.54,5.82 -1.29651,-0.38199 -2.21298,-1.45363 -3.15,-2.37 z" style="fill:#003036;fill-opacity:1"/></g><g id="g4"><g id="g2"><path id="path8" fill="#043f48" d="m 714.51823,564.5289 a 3.61,3.61 0 0 1 3.61,3.61 l -0.08,45.75 a 12.77,13.44 0.1 0 1 -12.79,13.42 h -0.7 a 12.77,13.44 0.1 0 1 -12.75,-13.46 l 0.08,-45.75 a 3.61,3.61 0 0 1 3.61,-3.61 z"/><path id="path9" fill="#043f48" d="m 953.61823,564.5489 a 3.58,3.58 0 0 1 3.58,3.58 l -0.08,45.59 a 12.99,13.71 0.1 0 1 -13.01,13.69 h -0.54 a 12.99,13.71 0.1 0 1 -12.97,-13.73 l 0.08,-45.59 a 3.58,3.58 0 0 1 3.58,-3.58 z"/><path id="path11" fill="#043f48" d="m 1015.8182,630.6889 c 2.0133,4.59333 3.02,9.73667 3.02,15.43 0.093,78.76667 0.12,140.18 0.08,184.24 -0.01,9.20667 -0.46,15.68667 -1.36,19.44 -4.74,19.8 -19.62997,34.74 -39.74997,38.81 -3.37333,0.68 -8.64333,1.01333 -15.81,1 -41.79333,-0.06 -133.33667,-0.06 -274.63,0 -10.15333,0 -17.11,-0.51 -20.87,-1.53 -17.9,-4.87 -31.71,-19.88 -36.06,-37.5 -0.88667,-3.59333 -1.32667,-11.75 -1.32,-24.47 0.007,-54.33333 0.0247,-156.9946 -0.01,-163.04 -0.0347,-6.0454 -0.17348,-9.88103 0.10437,-18.4943 0.28667,-8.70666 4.28563,-16.70903 8.86563,-23.6157 10.34667,-15.60667 24.64808,-22.71 43.72141,-21.31 0.64337,0.0478 1.13368,0.59992 1.11,1.25 -0.18667,4.41333 0.17192,7.93333 0.25859,10.56 0.46,13.78 9.22,24.76 23.48,23.88 11.1,-0.68 19.06,-10.03 19.65,-20.99 0.24,-4.58 0.51182,-9.07333 0.32515,-13.48 -0.0284,-0.73741 0.56204,-1.35055 1.3,-1.35 h 192.60485 c 0.88483,-4e-4 1.60828,0.70086 1.63,1.58 0.2,6.56 -0.72,14.05 1.16,19.43 4.1,11.77 16.22,18.22 27.94,13.71 8.22,-3.16 13.56,-10.66 13.9,-19.61 0.18,-4.66667 0.54746,-8.83801 0.34079,-13.05801 -0.0407,-0.8915 0.63067,-1.65567 1.52,-1.73 9.04,-0.78 17.15254,0.51134 25.09921,4.41801 10.41327,5.12667 18.31327,13.93667 23.69997,26.43 z" style="fill:#003036;fill-opacity:1"/></g><g id="g3"><path id="path13" fill="#fdfdfe" d="m 983.22823,830.5889 q 0.08,4.59 0.08,9.19 c -0.01,7.9 0.31,12.89 -4.99,17.68 q -4.83,4.35 -11.57,4.44 -6.98,0.1 -13.96,-0.04 -57.01,-0.06 -284.54,0.02 c -4.03,0.01 -3.5,-2.92 -3.5,-6.43 q -0.04,-93.29 0.02,-165.85 a 0.7,0.64 64.9 0 1 0.12,-0.39 q 1.01,-1.44 3.35,-1.44 143.73,0.1 312,0.02 3.19,0 3.17,3.35 -0.36,69.72 -0.18,139.45 z"/><rect id="rect13" width="39.24" height="37.84" x="670.108" y="692.889" fill="#64b8b4" rx="1.51"/><rect id="rect14" width="39.24" height="37.88" x="714.638" y="692.859" fill="#64b8b4" rx="1.57"/><rect id="rect15" width="39.48" height="37.7" x="758.908" y="692.819" fill="#64b8b4" rx="1.48"/><rect id="rect18" width="39.78" height="37.8" x="893.968" y="692.849" fill="#64b8b4" rx="1.64"/><rect id="rect16" width="39.82" height="37.7" x="803.978" y="692.799" fill="#64b8b4" rx="1.69"/><rect id="rect17" width="39.92" height="37.72" x="848.898" y="692.849" fill="#64b8b4" rx="1.54"/><rect id="rect19" width="39.2" height="37.8" x="940.099" y="691.235" fill="#64b8b4" rx="1.79" transform="rotate(0.1)"/><rect id="rect20" width="39.22" height="36.92" x="670.128" y="735.789" fill="#64b8b4" rx="1.28"/><rect id="rect21" width="39.42" height="37.14" x="757.601" y="736.937" fill="#64b8b4" rx="1.34" transform="rotate(-0.1)"/><rect id="rect22" width="39.86" height="37.02" x="802.581" y="737.126" fill="#64b8b4" rx="1.53" transform="rotate(-0.1)"/><rect id="rect23" width="39.82" height="36.98" x="850.233" y="734.181" fill="#64b8b4" rx="1.43" transform="rotate(0.1)"/><rect id="rect24" width="39.18" height="36.96" x="715.963" y="734.496" fill="#64b8b4" rx="1.16" transform="rotate(0.1)"/><rect id="rect25" width="39.74" height="36.92" x="893.978" y="735.789" fill="#64b8b4" rx="1.16"/><rect id="rect26" width="39.14" height="36.92" x="938.908" y="735.829" fill="#64b8b4" rx="1.37"/><rect id="rect27" width="39.24" height="36.54" x="671.507" y="776.784" fill="#64b8b4" rx="1.4" transform="rotate(0.1)"/><rect id="rect28" width="39.16" height="36.6" x="714.648" y="777.949" fill="#64b8b4" rx="1.31"/><rect id="rect29" width="39.42" height="36.6" x="760.277" y="776.579" fill="#64b8b4" rx="1.47" transform="rotate(0.1)"/><rect id="rect30" width="39.82" height="36.66" x="805.326" y="776.41" fill="#64b8b4" rx="1.68" transform="rotate(0.1)"/><rect id="rect31" width="39.8" height="36.58" x="848.918" y="777.939" fill="#64b8b4" rx="1.39"/><rect id="rect32" width="39.62" height="36.54" x="895.476" y="776.353" fill="#64b8b4" rx="1.46" transform="rotate(0.1)"/><rect id="rect33" width="39.2" height="36.62" x="940.237" y="776.235" fill="#64b8b4" rx="1.44" transform="rotate(0.1)"/><rect id="rect34" width="39.24" height="36.08" x="671.53" y="818.624" fill="#64b8b4" rx="1.43" transform="rotate(0.1)"/><rect id="rect35" width="39.16" height="36.12" x="716.139" y="818.506" fill="#64b8b4" rx="1.43" transform="rotate(0.1)"/><rect id="rect36" width="39.46" height="36.12" x="758.908" y="819.779" fill="#64b8b4" rx="1.35"/><rect id="rect37" width="39.82" height="36.1" x="805.389" y="818.37" fill="#64b8b4" rx="1.59" transform="rotate(0.1)"/><rect id="rect38" width="39.88" height="36.12" x="848.918" y="819.829" fill="#64b8b4" rx="1.4"/><rect id="rect39" width="39.64" height="36.12" x="895.529" y="818.213" fill="#64b8b4" rx="1.5" transform="rotate(0.1)"/><path id="path39" fill="#64b8b4" d="m 939.26823,855.5489 a 0.61,0.62 9.3 0 1 -0.41,-0.58 v -33.86 a 1.29,1.29 0 0 1 1.29,-1.29 h 36.32 a 1.55,1.55 0 0 1 1.55,1.53 q 0.03,4.58 0.09,23.55 0.02,7.28 -5.99,10.31 -1.52,0.76 -8.87,0.73 -4.21,-0.02 -22,-0.02 -0.96,0 -1.98,-0.37 z"/></g></g></g><g id="g6" transform="matrix(0.60849046,0,0,0.60849046,257.21731,555.58312)"><path id="path36" fill="#003036" d="m 762.14943,1062.5925 q 0,-0.712 1.5427,-1.2262 2.0964,-0.712 2.7689,0.6329 0.7515,1.5427 0.7515,4.9445 0.04,29.1132 0.04,248.5698 c 0,15.1103 2.6107,24.2082 18.9869,19.3033 a 3.2831462,3.3227022 73.7 0 1 4.1533,2.2547 l 11.0362,39.9119 a 4.0742658,4.0742658 0 0 1 -3.0063,5.0632 c -19.1451,4.3907 -57.7517,7.5948 -74.1675,-4.8258 -19.9757,-15.15 -23.338,-34.7302 -23.2984,-61.0349 q 0.039,-72.0314 0,-244.1395 a 1.6613511,1.6613511 0 0 1 1.5031,-1.6613 q 28.1243,-3.1645 58.1868,-6.0521 1.5823,-0.1582 1.5032,-1.7405 z" style="stroke-width:3.9556"/><path id="path37" fill="#003036" d="m 1315.9726,1062.6716 q 0,-0.712 1.5427,-1.2262 2.0965,-0.712 2.7689,0.6329 0.7516,1.5427 0.7516,4.9445 0,29.1132 -0.04,248.4511 c 0,15.1104 2.5712,24.2083 18.9473,19.3033 a 3.2831462,3.3227022 73.7 0 1 4.1534,2.2547 l 11.0361,39.912 a 4.0742658,4.0742658 0 0 1 -3.0062,5.0632 c -19.1451,4.3511 -57.7517,7.5552 -74.1279,-4.8654 -19.9758,-15.15 -23.338,-34.7302 -23.2985,-60.9953 q 0.079,-72.0315 0.079,-244.0604 a 1.6613511,1.6613511 0 0 1 1.5032,-1.6614 q 28.1243,-3.1249 58.1868,-6.0125 1.5822,-0.1582 1.5031,-1.7405 z" style="stroke-width:3.9556"/><path id="path38" d="m 559.5235,1149.9978 c -28.48188,0.3797 -58.59071,7.3827 -82.1016,15.8378 a 3.2040343,3.2435902 70.9 0 0 -1.9778,4.0327 l 13.17215,38.8452 a 2.6502506,2.6502506 0 0 0 3.36858,1.6997 c 23.17981,-7.4365 46.67408,-14.2022 69.97255,-10.4839 23.61492,3.7183 23.65448,23.6925 23.73359,42.5998 a 2.1755788,2.2151348 0 0 1 -2.17874,2.2175 c -43.43247,0.3956 -109.52458,0.9925 -122.53849,54.2348 -9.13743,37.5782 8.93332,80.8117 51.02088,85.7562 13.13259,1.5427 37.42391,1.8156 49.60715,-2.14 13.13259,-4.272 24.75097,-13.1598 34.85119,-26.6615 a 1.7009071,1.7009071 0 0 1 2.88166,0.2017 c 10.54799,19.7515 27.53412,29.205 50.95131,28.3613 a 2.9666984,3.0062544 7.7 0 0 2.7273,-2.0937 l 11.8281,-37.4235 a 2.7689185,2.7689185 0 0 0 -1.46,-3.3611 c -8.5967,-4.0347 -12.8822,-12.1571 -12.8557,-24.3669 0.1068,-33.9916 0.059,-64.0008 -0.1227,-90.0286 -0.445,-60.1002 -43.4083,-77.8608 -90.87824,-77.2267 z m 23.55598,130.6661 a 2.6106946,2.5711386 1.4 0 1 2.49559,2.5727 v 33.2286 a 5.8542848,5.8938408 61.4 0 1 -0.95053,3.1981 c -8.70232,13.7128 -21.33412,20.0204 -37.89502,18.9129 -14.79354,-1.0285 -22.54929,-12.5021 -22.31195,-26.94 0.51423,-31.8422 34.7701,-31.803 58.66191,-30.9723 z" style="fill:#003036;fill-opacity:1;stroke-width:3.9556"/><path id="path39-3" d="m 1113.3072,1149.9978 c -28.4819,0.3797 -58.5907,7.3827 -82.1016,15.8378 a 3.2040343,3.2435902 70.9 0 0 -1.9778,4.0327 l 13.1721,38.8452 a 2.6502506,2.6502506 0 0 0 3.3686,1.6997 c 23.1798,-7.4365 46.6741,-14.2022 69.9726,-10.4839 23.6149,3.7183 23.6544,23.6925 23.7335,42.5998 a 2.1755788,2.2151348 0 0 1 -2.1787,2.2175 c -43.4325,0.3956 -109.5246,0.9925 -122.5385,54.2348 -9.1374,37.5782 8.9333,80.8117 51.0209,85.7562 13.1326,1.5427 37.4239,1.8156 49.6071,-2.14 13.1326,-4.272 24.751,-13.1598 34.8512,-26.6615 a 1.7009071,1.7009071 0 0 1 2.8817,0.2017 c 10.548,19.7515 27.5341,29.205 50.9513,28.3613 a 2.9666984,3.0062544 7.7 0 0 2.7273,-2.0937 l 11.8281,-37.4235 a 2.7689185,2.7689185 0 0 0 -1.46,-3.3611 c -8.5967,-4.0347 -12.8822,-12.1571 -12.8557,-24.3669 0.1068,-33.9916 0.059,-64.0008 -0.1227,-90.0286 -0.445,-60.1002 -43.4083,-77.8608 -90.8782,-77.2267 z m 23.556,130.6661 a 2.6106946,2.5711386 1.4 0 1 2.4955,2.5727 v 33.2286 a 5.8938408,5.8938408 0 0 1 -0.9505,3.1981 c -8.7023,13.7128 -21.3341,20.0204 -37.895,18.9129 -14.8335,-1.0285 -22.5877,-12.5021 -22.3503,-26.94 0.5142,-31.8422 34.8084,-31.803 58.7003,-30.9723 z" style="fill:#003036;fill-opacity:1;stroke-width:3.9556"/><path id="path40" fill="#003036" d="m 413.77989,1216.6631 q -21.39978,-15.9806 -42.16667,-15.1104 c -46.16183,1.9382 -45.48937,61.0744 -40.74266,94.8948 6.40807,46.0036 48.2583,47.032 81.80177,26.2256 a 3.8764859,3.8764859 0 0 1 5.18183,1.068 l 25.67183,36.7871 a 1.5822391,1.6217951 53 0 1 -0.31645,2.1755 q -27.37273,21.558 -60.75798,22.6261 c -18.15619,0.5537 -39.31864,0.9493 -55.73437,-4.9445 -57.90996,-20.846 -75.15636,-84.2543 -64.31803,-138.8811 11.03612,-55.6157 52.84679,-89.8316 110.00518,-88.368 q 41.61289,1.0284 70.33053,24.8016 a 2.4920267,2.4524707 38.4 0 1 0.39556,3.3622 l -25.31583,34.7302 a 2.8875864,2.8875864 0 0 1 -4.03471,0.6329 z" style="stroke-width:3.9556"/><path id="path41" fill="#003036" d="m 971.59833,1216.0302 a 2.8875864,2.8875864 0 0 1 -4.0347,0.6329 q -21.3998,-15.9806 -42.1667,-15.1104 c -46.1618,1.9382 -45.4894,61.0744 -40.7427,94.8948 6.4081,46.0036 48.2583,47.032 81.8018,26.2256 a 3.8764859,3.8764859 0 0 1 5.1818,1.068 l 25.6719,36.7871 a 1.5822391,1.6217951 53 0 1 -0.3165,2.1755 q -27.3727,21.558 -60.758,22.6261 c -18.1562,0.5537 -39.3186,0.9493 -55.7343,-4.9445 -57.91,-20.846 -75.1564,-84.2543 -64.3181,-138.8811 11.0362,-55.6157 52.8468,-89.8316 110.0052,-88.368 q 41.6129,1.0284 70.3305,24.8016 a 2.4920267,2.4524707 38.4 0 1 0.3956,3.3622 z" style="stroke-width:3.9556"/></g></svg>